<mxfile host="65bd71144e">
    <diagram id="XFFtF78UZ1wFcu2PnfYe" name="Page-1">
        <mxGraphModel dx="690" dy="290" grid="1" gridSize="10" guides="1" tooltips="1" connect="1" arrows="1" fold="1" page="1" pageScale="1" pageWidth="850" pageHeight="1100" background="#ffffff" math="0" shadow="0">
            <root>
                <mxCell id="0"/>
                <mxCell id="1" parent="0"/>
                <mxCell id="2" value="Program" style="html=1;fillColor=none;strokeColor=#000000;fontColor=#000000;labelBackgroundColor=#ffffff;" vertex="1" parent="1">
                    <mxGeometry x="40" y="240" width="110" height="50" as="geometry"/>
                </mxCell>
                <mxCell id="3" value="TemperatureReporter" style="html=1;fillColor=none;strokeColor=#000000;fontColor=#000000;labelBackgroundColor=#ffffff;" vertex="1" parent="1">
                    <mxGeometry x="305" y="240" width="130" height="50" as="geometry"/>
                </mxCell>
                <mxCell id="4" value="TemperatureMonitor&lt;br&gt;: monitor" style="html=1;fillColor=none;strokeColor=#000000;fontColor=#000000;labelBackgroundColor=#ffffff;" vertex="1" parent="1">
                    <mxGeometry x="255" y="390" width="130" height="50" as="geometry"/>
                </mxCell>
                <mxCell id="5" value="1: StartReporting(monitor)" style="html=1;verticalAlign=bottom;endArrow=block;fillColor=none;strokeColor=#000000;fontColor=#000000;labelBackgroundColor=#ffffff;" edge="1" parent="1" source="2" target="3">
                    <mxGeometry width="80" relative="1" as="geometry">
                        <mxPoint x="40" y="310" as="sourcePoint"/>
                        <mxPoint x="120" y="310" as="targetPoint"/>
                    </mxGeometry>
                </mxCell>
                <mxCell id="6" value="3: GetTemperature" style="html=1;verticalAlign=bottom;endArrow=block;fillColor=none;strokeColor=#000000;fontColor=#000000;labelBackgroundColor=#ffffff;" edge="1" parent="1" source="2" target="4">
                    <mxGeometry width="80" relative="1" as="geometry">
                        <mxPoint x="110" y="370" as="sourcePoint"/>
                        <mxPoint x="190" y="370" as="targetPoint"/>
                    </mxGeometry>
                </mxCell>
                <mxCell id="7" value="2: Subscribe" style="html=1;verticalAlign=bottom;endArrow=block;exitX=0.25;exitY=1;exitDx=0;exitDy=0;entryX=0.25;entryY=0;entryDx=0;entryDy=0;fillColor=none;strokeColor=#000000;fontColor=#000000;labelBackgroundColor=#ffffff;" edge="1" parent="1" source="3" target="4">
                    <mxGeometry width="80" relative="1" as="geometry">
                        <mxPoint x="400" y="270" as="sourcePoint"/>
                        <mxPoint x="480" y="270" as="targetPoint"/>
                    </mxGeometry>
                </mxCell>
                <mxCell id="8" value="4: Update" style="html=1;verticalAlign=bottom;endArrow=block;exitX=0.75;exitY=0;exitDx=0;exitDy=0;entryX=0.75;entryY=1;entryDx=0;entryDy=0;fillColor=none;strokeColor=#000000;fontColor=#000000;labelBackgroundColor=#ffffff;" edge="1" parent="1" source="4" target="3">
                    <mxGeometry width="80" relative="1" as="geometry">
                        <mxPoint x="470" y="414" as="sourcePoint"/>
                        <mxPoint x="550" y="414" as="targetPoint"/>
                    </mxGeometry>
                </mxCell>
            </root>
        </mxGraphModel>
    </diagram>
</mxfile>